<svg id="Layer_1" xmlns="http://www.w3.org/2000/svg" viewBox="0 0 18.9 21.4"><style>.st0{fill:none;stroke:#000000;stroke-miterlimit:10;} .st1{fill:none;stroke:#E60012;stroke-width:0.4;stroke-miterlimit:10;} .st2{fill:none;stroke:#000000;stroke-width:0.5;stroke-miterlimit:10;} .st3{fill:none;stroke:#000000;stroke-width:0.8;stroke-miterlimit:10;} .st4{fill:none;stroke:#000000;stroke-width:0.2;stroke-miterlimit:10;} .st5{fill:none;stroke:#000000;stroke-width:0.4;stroke-miterlimit:10;} .st6{fill:none;} .st7{fill:none;stroke:#000000;stroke-width:0.1;stroke-miterlimit:10;} .st8{fill:none;stroke:#FFFFFF;stroke-width:0.3;stroke-miterlimit:10;} .st9{fill:none;stroke:#000000;stroke-width:0.7;stroke-miterlimit:10;} .st10{fill:none;stroke:#000000;stroke-width:0.3;stroke-miterlimit:10;}</style><path id="XMLID_1_" class="st0" d="M-28-62.8l1.4.7 1.5.7 1.5.7 1.6.7 1.8.8 1.5.6 1.5.7"/><path id="XMLID_9_" class="st0" d="M-28-33.8l1.4.7 1.5.7 1.5.7 1.6.7 1.8.8 1.5.6 1.5.7"/><path id="XMLID_69_" class="st0" d="M30.4-10l1.4.6 1.5.7 1.6.7 1.6.7 1.7.8 1.5.6 1.5.7"/><path id="XMLID_2_" d="M-20.3-47.2c0 .6-.2 1.2-.6 1.6-.4.4-1 .7-1.6.7-.6 0-1.1-.2-1.5-.6-.5-.4-.7-1-.7-1.7 0-.6.2-1.1.6-1.5.4-.5 1-.8 1.7-.8.5 0 1 .2 1.4.5.3.5.7 1.1.7 1.8z"/><path id="XMLID_63_" d="M-18.1 20.9c0 .6-.2 1.2-.6 1.6-.4.4-1 .7-1.6.7-.6 0-1.1-.2-1.5-.6-.5-.4-.7-1-.7-1.7 0-.6.2-1.1.6-1.5.4-.5 1-.8 1.7-.8.5 0 1 .2 1.4.5.4.4.7 1 .7 1.8z"/><path id="XMLID_38_" d="M71.3-49.9c0 .4-.1.7-.4 1-.3.3-.6.4-1 .4s-.7-.1-.9-.4c-.3-.3-.5-.6-.5-1s.1-.7.4-.9c.3-.3.6-.5 1-.5.3 0 .6.1.9.3.3.2.5.6.5 1.1z"/><path id="XMLID_39_" class="st0" d="M78.1-44.6c0 .4-.1.7-.4 1-.3.3-.6.4-1 .4s-.7-.1-.9-.4c-.3-.3-.5-.6-.5-1s.1-.7.4-.9c.3-.3.6-.5 1-.5.3 0 .6.1.9.3.3.3.5.7.5 1.1z"/><path id="XMLID_41_" class="st0" d="M61.9-37.9c0 .4-.1.7-.4 1-.3.3-.6.4-1 .4s-.7-.1-.9-.4c-.3-.3-.5-.6-.5-1s.1-.7.4-.9c.3-.3.6-.5 1-.5.3 0 .6.1.9.3.3.3.5.7.5 1.1z"/><path id="XMLID_43_" class="st0" d="M68.9-32.5c0 .4-.1.7-.4 1-.3.3-.6.4-1 .4s-.7-.1-.9-.4c-.3-.3-.5-.6-.5-1s.1-.7.4-.9c.3-.3.6-.5 1-.5.3 0 .6.1.9.3.3.3.5.7.5 1.1z"/><path id="XMLID_40_" d="M77.1-35.9c0 .4-.1.7-.4 1-.3.3-.6.4-1 .4s-.7-.1-.9-.4c-.3-.3-.5-.6-.5-1s.1-.7.4-.9c.3-.3.6-.5 1-.5.3 0 .6.1.9.3.2.3.5.7.5 1.1z"/><path id="XMLID_42_" d="M63.3-46.6c0 .4-.1.7-.4 1-.3.3-.6.4-1 .4s-.7-.1-.9-.4c-.3-.3-.5-.6-.5-1s.1-.7.4-.9c.3-.3.6-.5 1-.5.3 0 .6.1.9.3.3.3.5.7.5 1.1z"/><path id="XMLID_6_" class="st1" d="M-10.4-58.6L-.1-53"/><path id="XMLID_7_" class="st1" d="M-.1-53l-10.3 7"/><path id="XMLID_36_" class="st1" d="M23.4-50.8l19.4 10.6"/><path id="XMLID_35_" class="st1" d="M42.8-40.2L23.4-27"/><path id="XMLID_16_" class="st1" d="M-12.4-29.6L-2.1-24"/><path id="XMLID_15_" class="st1" d="M-2.1-24l-10.3 7"/><path id="XMLID_65_" class="st1" d="M-11.2 6l10.3 5.6"/><path id="XMLID_64_" class="st1" d="M-.9 11.6l-10.3 7"/><path id="XMLID_3_" class="st2" d="M5.3-53.7c-.5 0-.9-.4-.9-.9s.4-.9.9-.9.9.4.9.9c-.1.5-.5.9-.9.9z"/><path id="XMLID_12_" d="M3.1-46.3c-.4.2-.9.1-1.1-.4-.2-.4-.1-.9.4-1.1.4-.2.9-.1 1.1.4.2.4 0 .9-.4 1.1z"/><path id="XMLID_5_" d="M10.7-48.2c-.5 0-.9-.4-.9-.9s.4-.9.9-.9.9.4.9.9-.4.9-.9.9z"/><path id="XMLID_4_" class="st2" d="M5.8-54l4.9 4.9"/><path id="XMLID_10_" class="st3" d="M11.1-49.6l1.8-7.2"/><path id="XMLID_11_" class="st4" d="M2.9-47.8l1.8-5.9"/><circle id="XMLID_8_" class="st2" cx="13.1" cy="-58.6" r="1.8"/><path id="XMLID_13_" class="st3" d="M-18-13.7l-4.5 1.2-3.2-3.3 1.2-4.4 4.4-1.2 3.3 3.2z"/><path id="XMLID_14_" class="st5" d="M16.6-20.7L8.4-17 1-22.2l.9-9 8.3-3.7 7.3 5.3z"/><path id="XMLID_18_" d="M11.6-22.2l-4.4.1-2.3-3.7 2-3.9 4.4-.1 2.3 3.8z"/><path id="XMLID_17_" class="st6" d="M1-22.2l5.1-1.5"/><path id="XMLID_19_" class="st7" d="M4.9-25.8L1-22.2"/><path id="XMLID_20_" class="st7" d="M6.9-29.7l-5-1.5"/><path id="XMLID_21_" class="st7" d="M4.9-25.8l-3-5.4"/><path id="XMLID_22_" class="st7" d="M1-22.2l6.2.1"/><path id="XMLID_23_" class="st7" d="M7.2-22.1L8.4-17"/><path id="XMLID_24_" class="st7" d="M8.4-17l3.2-5.2"/><path id="XMLID_25_" class="st7" d="M11.6-22.2l5 1.5"/><path id="XMLID_26_" class="st7" d="M16.6-20.7l-3-5.3"/><path id="XMLID_27_" class="st7" d="M13.6-26l3.9-3.6"/><path id="XMLID_28_" class="st7" d="M17.5-29.6l-6.2-.2"/><path id="XMLID_29_" class="st7" d="M11.3-29.8l-1.1-5.1"/><path id="XMLID_30_" class="st7" d="M10.2-34.9l-3.3 5.2"/><path id="XMLID_31_" class="st8" d="M6.1-28.1l6.3 4.4"/><path id="XMLID_32_" class="st8" d="M12.7-27.5l-6.9 3.2"/><path id="XMLID_33_" class="st8" d="M9.6-29.8l-.8 7.7"/><path id="XMLID_837_" class="st9" d="M66.4-33.4l-4.9-3.5"/><path id="XMLID_838_" class="st9" d="M76.5-43.2l-.9 7.3-6.8 3"/><path id="XMLID_836_" class="st9" d="M60.7-39.4l.9-7.1 8.1-3.4 5.8 4.4"/><path id="XMLID_37_" class="st10" d="M61.9-46.6L67-33.7"/><path id="XMLID_44_" class="st10" d="M70-49.9l-2.3 16"/><path id="XMLID_45_" class="st10" d="M68.4-33.7l7.6-9.9"/><path id="XMLID_46_" class="st10" d="M61.9-46.6l13.4 1.8"/><path id="XMLID_47_" class="st10" d="M75.7-35.6l-9.9-12.7"/><path id="XMLID_48_" class="st10" d="M61.6-38.6l11.9-8.5"/><path id="XMLID_49_" class="st10" d="M59.4-38.8l-5.8-5.3"/><path id="XMLID_50_" class="st10" d="M53.4-44.1l8.2-2.4"/><path id="XMLID_51_" class="st10" d="M61.6-46.5l1.1-7"/><path id="XMLID_52_" class="st10" d="M62.6-53.6l7.4 3.7"/><path id="XMLID_53_" class="st10" d="M70-49.9l8.7-1.4"/><path id="XMLID_54_" class="st10" d="M78.7-51.5l-1.6 5.7"/><path id="XMLID_55_" class="st10" d="M77.8-43.7l4.2 3.6"/><path id="XMLID_56_" class="st10" d="M81.8-40.2l-6.1 4.3"/><path id="XMLID_57_" class="st10" d="M75.7-35.9v7.9"/><path id="XMLID_58_" class="st10" d="M75.7-28.2l-7-3.6"/><path id="XMLID_59_" class="st10" d="M66.2-31.9l-5.7 2.3"/><path id="XMLID_60_" class="st10" d="M60.5-29.4v-7.1"/><path id="XMLID_61_" class="st0" d="M-16.3 11.1c-3.4 1.7-7.6.3-9.3-3.1-1.4-2.7-.3-6 2.4-7.4 2.2-1.1 4.8-.2 5.9 2 .9 1.7.2 3.9-1.6 4.7-1.4.7-3.1.1-3.8-1.3-.6-1.1-.1-2.5 1-3 .9-.4 2-.1 2.4.8.4.7.1 1.6-.6 1.9"/><path id="XMLID_67_" class="st0" d="M5.4 10C4 7.3 5.1 4 7.8 2.6c2.2-1.1 4.8-.2 5.9 2 .9 1.7.2 3.9-1.6 4.7-1.3.7-3 .2-3.7-1.2-.6-1.1-.1-2.5 1-3 .9-.4 2-.1 2.4.8.4.7.1 1.6-.6 1.9"/><path id="XMLID_62_" class="st0" d="M13.3 14.5c-1.2 2.8-4.4 4.2-7.2 3-2.3-.9-3.3-3.5-2.4-5.8.8-1.8 2.8-2.7 4.6-1.9 1.4.6 2.1 2.2 1.5 3.7-.5 1.2-1.8 1.7-3 1.2-.9-.4-1.4-1.4-1-2.4.3-.7 1.2-1.1 1.9-.8"/><circle id="XMLID_66_" class="st0" cx="14.1" cy="12.9" r="1.5"/></svg>