<svg id="Layer_1" xmlns="http://www.w3.org/2000/svg" viewBox="0 0 23 24.5"><style>.st0{fill:none;stroke:#000000;stroke-miterlimit:10;} .st1{fill:none;stroke:#E60012;stroke-width:0.4;stroke-miterlimit:10;} .st2{fill:none;stroke:#000000;stroke-width:0.5;stroke-miterlimit:10;} .st3{fill:none;stroke:#000000;stroke-width:0.8;stroke-miterlimit:10;} .st4{fill:none;stroke:#000000;stroke-width:0.2;stroke-miterlimit:10;} .st5{fill:none;stroke:#000000;stroke-width:0.4;stroke-miterlimit:10;} .st6{fill:none;} .st7{fill:none;stroke:#000000;stroke-width:0.1;stroke-miterlimit:10;} .st8{fill:none;stroke:#FFFFFF;stroke-width:0.3;stroke-miterlimit:10;} .st9{fill:none;stroke:#000000;stroke-width:0.7;stroke-miterlimit:10;} .st10{fill:none;stroke:#000000;stroke-width:0.3;stroke-miterlimit:10;}</style><path id="XMLID_1_" class="st0" d="M-26.4-25l1.4.7 1.5.7 1.6.7 1.6.7 1.7.8 1.5.6 1.5.7"/><path id="XMLID_9_" class="st0" d="M-26.4 4l1.4.7 1.5.7 1.6.7 1.6.7 1.7.8 1.5.6 1.5.7"/><path id="XMLID_69_" class="st0" d="M19.6 44.2l1.5.6 1.4.7 1.6.7 1.6.7 1.7.8 1.5.6 1.6.7"/><path id="XMLID_2_" d="M-18.7-9.4c0 .6-.2 1.2-.6 1.6-.4.4-1 .7-1.6.7-.6 0-1.1-.2-1.5-.6-.5-.4-.7-1-.7-1.7 0-.6.2-1.1.6-1.5.4-.5 1-.8 1.7-.8.5 0 1 .2 1.4.5.3.5.7 1.1.7 1.8z"/><path id="XMLID_63_" d="M-16.4 58.7c0 .6-.2 1.2-.6 1.6-.4.4-1 .7-1.6.7-.6 0-1.1-.2-1.5-.6-.5-.4-.7-1-.7-1.7 0-.6.2-1.1.6-1.5.4-.5 1-.8 1.7-.8.5 0 1 .2 1.4.5.3.4.7 1 .7 1.8z"/><path id="XMLID_38_" d="M63-12.1c0 .4-.1.7-.4 1-.3.3-.6.4-1 .4s-.7-.1-.9-.4c-.3-.3-.5-.6-.5-1s.1-.7.4-.9c.3-.3.6-.5 1-.5.3 0 .6.1.9.3.3.2.5.6.5 1.1z"/><path id="XMLID_39_" class="st0" d="M69.7-6.8c0 .4-.1.7-.4 1-.3.3-.6.4-1 .4s-.7-.1-.9-.4c-.3-.3-.5-.6-.5-1s.1-.7.4-.9c.3-.3.6-.5 1-.5.3 0 .6.1.9.3.3.3.5.7.5 1.1z"/><path id="XMLID_41_" class="st0" d="M53.5-.1c0 .4-.1.7-.4 1-.3.3-.6.4-1 .4s-.7-.1-.9-.4c-.3-.3-.5-.6-.5-1s.1-.7.4-.9c.3-.3.6-.5 1-.5.3 0 .6.1.9.3.3.3.5.7.5 1.1z"/><path id="XMLID_43_" class="st0" d="M60.5 5.3c0 .4-.1.7-.4 1-.3.3-.6.4-1 .4s-.7-.1-.9-.4c-.3-.3-.5-.6-.5-1s.1-.7.4-.9c.3-.3.6-.5 1-.5.3 0 .6.1.9.3.3.3.5.7.5 1.1z"/><path id="XMLID_40_" d="M68.7 1.9c0 .4-.1.7-.4 1-.3.3-.6.4-1 .4s-.7-.1-.9-.4c-.3-.3-.5-.6-.5-1s.1-.7.4-.9c.3-.3.6-.5 1-.5.3 0 .6.1.9.3.3.3.5.7.5 1.1z"/><path id="XMLID_42_" d="M54.9-8.8c0 .4-.1.7-.4 1-.3.3-.6.4-1 .4s-.7-.1-.9-.4c-.3-.3-.5-.6-.5-1s.1-.7.4-.9c.3-.3.6-.5 1-.5.3 0 .6.1.9.3.3.3.5.7.5 1.1z"/><path id="XMLID_6_" class="st1" d="M-8.7-20.8l10.2 5.6"/><path id="XMLID_7_" class="st1" d="M1.5-15.2l-10.2 7"/><path id="XMLID_36_" class="st1" d="M25-13L44.4-2.4"/><path id="XMLID_35_" class="st1" d="M44.4-2.4L25 10.8"/><path id="XMLID_16_" class="st1" d="M-10.7 8.2l10.2 5.6"/><path id="XMLID_15_" class="st1" d="M-.5 13.8l-10.2 7"/><path id="XMLID_65_" class="st1" d="M-9.6 43.8L.7 49.4"/><path id="XMLID_64_" class="st1" d="M.7 49.4l-10.3 7"/><path id="XMLID_3_" class="st2" d="M6.9-15.9c-.5 0-.9-.4-.9-.9s.4-.9.9-.9.9.4.9.9c-.1.5-.4.9-.9.9z"/><path id="XMLID_12_" d="M4.7-8.5c-.4.2-.9.1-1.1-.3-.2-.4-.1-1 .3-1.2.4-.2.9-.1 1.1.4.3.4.1.9-.3 1.1z"/><path id="XMLID_5_" d="M12.3-10.4c-.5 0-.9-.4-.9-.9s.4-.9.9-.9.9.4.9.9-.4.9-.9.9z"/><path id="XMLID_4_" class="st2" d="M7.4-16.2l4.9 4.9"/><path id="XMLID_10_" class="st3" d="M12.7-11.8l1.8-7.2"/><path id="XMLID_11_" class="st4" d="M4.5-10l1.9-5.9"/><circle id="XMLID_8_" class="st2" cx="14.7" cy="-20.8" r="1.8"/><path id="XMLID_13_" class="st3" d="M-16.4 24.1l-4.4 1.2-3.3-3.3 1.2-4.4 4.4-1.2 3.3 3.2z"/><path id="XMLID_14_" class="st5" d="M18.2 17.1L10 20.8l-7.3-5.2.9-9 8.2-3.7 7.3 5.3z"/><path id="XMLID_18_" d="M13.2 15.6l-4.4.1L6.5 12l2.1-3.9L13 8l2.3 3.8z"/><path id="XMLID_17_" class="st6" d="M2.7 15.6l5-1.5"/><path id="XMLID_19_" class="st7" d="M6.5 12l-3.8 3.6"/><path id="XMLID_20_" class="st7" d="M8.6 8.1l-5-1.5"/><path id="XMLID_21_" class="st7" d="M6.5 12L3.6 6.6"/><path id="XMLID_22_" class="st7" d="M2.7 15.6l6.1.1"/><path id="XMLID_23_" class="st7" d="M8.8 15.7l1.2 5.1"/><path id="XMLID_24_" class="st7" d="M10 20.8l3.2-5.2"/><path id="XMLID_25_" class="st7" d="M13.2 15.6l5 1.5"/><path id="XMLID_26_" class="st7" d="M18.2 17.1l-2.9-5.3"/><path id="XMLID_27_" class="st7" d="M15.3 11.8l3.8-3.6"/><path id="XMLID_28_" class="st7" d="M19.1 8.2L13 8"/><path id="XMLID_29_" class="st7" d="M13 8l-1.2-5.1"/><path id="XMLID_30_" class="st7" d="M11.8 2.9L8.6 8.1"/><path id="XMLID_31_" class="st8" d="M7.7 9.7l6.3 4.4"/><path id="XMLID_32_" class="st8" d="M14.4 10.3l-7 3.2"/><path id="XMLID_33_" class="st8" d="M11.2 8l-.8 7.7"/><path id="XMLID_34_" class="st9" d="M67.2 1.9l-8.1 3.4-7-5.3 1.1-8.7 8.1-3.4 7 5.3z"/><path id="XMLID_37_" class="st10" d="M53.5-8.8l5.6 14.1"/><path id="XMLID_44_" class="st10" d="M61.6-12.1L59.1 5.3"/><path id="XMLID_45_" class="st10" d="M59.1 5.3l9.2-12.1"/><path id="XMLID_46_" class="st10" d="M53.5-8.8l14.8 2"/><path id="XMLID_47_" class="st10" d="M67.3 2.2l-9.9-12.7"/><path id="XMLID_48_" class="st10" d="M52.1 0l13-9.3"/><path id="XMLID_49_" class="st10" d="M52.1 0l-6.8-6.3"/><path id="XMLID_50_" class="st10" d="M45.3-6.3l7.9-2.4"/><path id="XMLID_51_" class="st10" d="M53.2-8.7l1.2-7"/><path id="XMLID_52_" class="st10" d="M54.4-15.7l7.2 3.6"/><path id="XMLID_53_" class="st10" d="M61.6-12.1l8.6-1.4"/><path id="XMLID_54_" class="st10" d="M70.2-13.5l-1.9 6.7"/><path id="XMLID_55_" class="st10" d="M68.3-6.8l5.2 4.4"/><path id="XMLID_56_" class="st10" d="M73.5-2.4l-6.2 4.3"/><path id="XMLID_57_" class="st10" d="M67.3 1.9v7.6"/><path id="XMLID_58_" class="st10" d="M67.3 9.5l-8.2-4.2"/><path id="XMLID_59_" class="st10" d="M59.1 5.3l-7 2.8"/><path id="XMLID_60_" class="st10" d="M52.1 8.1V0"/><path id="XMLID_61_" class="st0" d="M-14.7 48.9c-3.4 1.7-7.6.3-9.3-3.1-1.4-2.7-.3-6 2.4-7.4 2.2-1.1 4.8-.2 5.9 2 .9 1.7.2 3.9-1.6 4.7-1.4.7-3.1.1-3.8-1.3-.6-1.1-.1-2.5 1-3 .9-.4 2-.1 2.4.8.4.7.1 1.6-.6 1.9"/><path id="XMLID_67_" class="st0" d="M7 47.8c-1.4-2.7-.3-6 2.4-7.4 2.2-1.1 4.8-.2 5.9 2 .9 1.7.2 3.9-1.6 4.7-1.4.7-3.1.1-3.8-1.3-.6-1.1-.1-2.5 1-3 .9-.4 2-.1 2.4.8.4.7.1 1.6-.6 1.9"/><path id="XMLID_62_" class="st0" d="M14.9 52.3c-1.2 2.8-4.4 4.2-7.2 3-2.3-.9-3.3-3.5-2.4-5.8.7-1.8 2.8-2.7 4.6-1.9 1.4.6 2.1 2.2 1.5 3.7-.5 1.2-1.8 1.7-3 1.2-.9-.4-1.4-1.4-1-2.4.3-.7 1.2-1.1 1.9-.8"/><circle id="XMLID_66_" class="st0" cx="15.7" cy="50.7" r="1.5"/></svg>