<svg id="Layer_1" xmlns="http://www.w3.org/2000/svg" viewBox="0 0 37.4 35.1"><style>.st0{fill:none;stroke:#000000;stroke-miterlimit:10;} .st1{fill:none;stroke:#E60012;stroke-width:0.4;stroke-miterlimit:10;} .st2{fill:none;stroke:#000000;stroke-width:0.5;stroke-miterlimit:10;} .st3{fill:none;stroke:#000000;stroke-width:0.8;stroke-miterlimit:10;} .st4{fill:none;stroke:#000000;stroke-width:0.2;stroke-miterlimit:10;} .st5{fill:none;stroke:#000000;stroke-width:0.4;stroke-miterlimit:10;} .st6{fill:none;} .st7{fill:none;stroke:#000000;stroke-width:0.1;stroke-miterlimit:10;} .st8{fill:none;stroke:#FFFFFF;stroke-width:0.3;stroke-miterlimit:10;} .st9{fill:none;stroke:#000000;stroke-width:0.7;stroke-miterlimit:10;} .st10{fill:none;stroke:#000000;stroke-width:0.3;stroke-miterlimit:10;}</style><path id="XMLID_1_" class="st0" d="M-78.9-4.1l1.4.7 1.5.6 1.6.7 1.6.8 1.7.8 1.5.6 1.5.6"/><path id="XMLID_9_" class="st0" d="M-78.9 24.9l1.4.7 1.5.6 1.6.7 1.6.8 1.7.8 1.5.6 1.5.6"/><path id="XMLID_69_" class="st0" d="M-32.9 65.1l1.5.6 1.4.7 1.6.7 1.6.7 1.7.8 1.5.6 1.6.7"/><path id="XMLID_2_" d="M-71.2 11.5c0 .6-.2 1.2-.6 1.6-.4.4-1 .7-1.6.7-.6 0-1.1-.2-1.5-.6-.5-.4-.7-1-.7-1.7 0-.6.2-1.1.6-1.5.4-.5 1-.8 1.7-.8.5 0 1 .2 1.4.5.3.5.7 1.1.7 1.8z"/><path id="XMLID_63_" d="M-68.9 79.6c0 .6-.2 1.2-.6 1.6-.4.4-1 .7-1.6.7-.6 0-1.1-.2-1.5-.6-.5-.4-.7-1-.7-1.7 0-.6.2-1.1.6-1.5.4-.5 1-.8 1.7-.8.5 0 1 .2 1.4.5.3.4.7 1 .7 1.8z"/><path id="XMLID_38_" d="M20.5 8.8c0 .4-.1.7-.4 1-.3.3-.6.4-1 .4s-.7-.1-.9-.4c-.3-.3-.5-.6-.5-1s.1-.7.4-.9c.3-.3.6-.5 1-.5.3 0 .6.1.9.3.3.2.5.6.5 1.1z"/><path id="XMLID_39_" class="st0" d="M27.2 14.1c0 .4-.1.7-.4 1-.3.3-.6.4-1 .4s-.7-.1-.9-.4c-.3-.3-.5-.6-.5-1s.1-.7.4-.9c.3-.3.6-.5 1-.5.3 0 .6.1.9.3.3.3.5.6.5 1.1z"/><path id="XMLID_41_" class="st0" d="M11 20.8c0 .4-.1.7-.4 1-.3.3-.6.4-1 .4s-.7-.1-.9-.4c-.3-.3-.5-.6-.5-1s.1-.7.4-.9c.3-.3.6-.5 1-.5.3 0 .6.1.9.3.3.3.5.7.5 1.1z"/><path id="XMLID_43_" class="st0" d="M18 26.2c0 .4-.1.7-.4 1-.3.3-.6.4-1 .4s-.7-.1-.9-.4c-.3-.3-.5-.6-.5-1s.1-.7.4-.9c.3-.3.6-.5 1-.5.3 0 .6.1.9.3.3.3.5.7.5 1.1z"/><path id="XMLID_40_" d="M26.2 22.8c0 .4-.1.7-.4 1-.3.3-.6.4-1 .4s-.7-.1-.9-.4c-.3-.3-.5-.6-.5-1s.1-.7.4-.9c.3-.3.6-.5 1-.5.3 0 .6.1.9.3.3.3.5.7.5 1.1z"/><path id="XMLID_42_" d="M12.4 12.1c0 .4-.1.7-.4 1-.3.3-.6.4-1 .4s-.7-.1-.9-.4c-.3-.3-.5-.6-.5-1s.1-.7.4-.9c.3-.3.6-.5 1-.5.3 0 .6.1.9.3.3.3.5.7.5 1.1z"/><path id="XMLID_6_" class="st1" d="M-61.3.1L-51 5.7"/><path id="XMLID_7_" class="st1" d="M-51 5.7l-10.3 7"/><path id="XMLID_36_" class="st1" d="M-27.5 7.9l19.4 10.6"/><path id="XMLID_35_" class="st1" d="M-8.1 18.5l-19.4 13.2"/><path id="XMLID_16_" class="st1" d="M-63.3 29.1l10.3 5.6"/><path id="XMLID_15_" class="st1" d="M-53 34.7l-10.3 7"/><path id="XMLID_65_" class="st1" d="M-62.1 64.7l10.3 5.6"/><path id="XMLID_64_" class="st1" d="M-51.8 70.3l-10.3 7"/><path id="XMLID_3_" class="st2" d="M-45.6 5c-.5 0-.9-.4-.9-.9s.4-.9.9-.9.9.4.9.9c-.1.5-.4.9-.9.9z"/><path id="XMLID_12_" d="M-47.8 12.4c-.4.2-.9.1-1.1-.4-.2-.4-.1-.9.4-1.1.4-.2.9-.1 1.1.4.2.4 0 .9-.4 1.1z"/><path id="XMLID_5_" d="M-40.2 10.5c-.5 0-.9-.4-.9-.9s.4-.9.9-.9.9.4.9.9-.4.9-.9.9z"/><path id="XMLID_4_" class="st2" d="M-45.1 4.7l4.9 4.9"/><path id="XMLID_10_" class="st3" d="M-39.8 9.1l1.8-7.2"/><path id="XMLID_11_" class="st4" d="M-48 10.8l1.9-5.8"/><circle id="XMLID_8_" class="st2" cx="-37.8" cy=".1" r="1.8"/><path id="XMLID_13_" class="st3" d="M-68.9 45l-4.4 1.1-3.3-3.2 1.2-4.4 4.4-1.2 3.3 3.2z"/><path id="XMLID_14_" class="st5" d="M-34.3 38l-8.2 3.7-7.3-5.2.9-9 8.2-3.7 7.3 5.3z"/><path id="XMLID_18_" d="M-39.3 36.5l-4.4.1-2.3-3.7 2.1-3.9 4.4-.1 2.3 3.7z"/><path id="XMLID_17_" class="st6" d="M-49.8 36.5l5-1.6"/><path id="XMLID_19_" class="st7" d="M-46 32.9l-3.8 3.6"/><path id="XMLID_20_" class="st7" d="M-43.9 29l-5-1.5"/><path id="XMLID_21_" class="st7" d="M-46 32.9l-2.9-5.4"/><path id="XMLID_22_" class="st7" d="M-49.8 36.5l6.1.1"/><path id="XMLID_23_" class="st7" d="M-43.7 36.6l1.2 5.1"/><path id="XMLID_24_" class="st7" d="M-42.5 41.7l3.2-5.2"/><path id="XMLID_25_" class="st7" d="M-39.3 36.5l5 1.5"/><path id="XMLID_26_" class="st7" d="M-34.3 38l-2.9-5.4"/><path id="XMLID_27_" class="st7" d="M-37.2 32.6l3.8-3.5"/><path id="XMLID_28_" class="st7" d="M-33.4 29.1l-6.1-.2"/><path id="XMLID_29_" class="st7" d="M-39.5 28.9l-1.2-5.1"/><path id="XMLID_30_" class="st7" d="M-40.7 23.8l-3.2 5.2"/><path id="XMLID_31_" class="st8" d="M-44.8 30.6l6.3 4.4"/><path id="XMLID_32_" class="st8" d="M-38.1 31.2l-7 3.1"/><path id="XMLID_33_" class="st8" d="M-41.3 28.9l-.8 7.7"/><path id="XMLID_837_" class="st9" d="M15.6 25.3l-5-3.5"/><path id="XMLID_838_" class="st9" d="M25.7 15.5l-1 7.3-6.8 3"/><path id="XMLID_836_" class="st9" d="M9.8 19.3l.9-7.1 8.1-3.4 5.8 4.4"/><path id="XMLID_37_" class="st10" d="M11 12.1L16.1 25"/><path id="XMLID_44_" class="st10" d="M19.1 8.8l-2.3 16"/><path id="XMLID_45_" class="st10" d="M17.6 25l7.5-9.9"/><path id="XMLID_46_" class="st10" d="M11 12.1l13.4 1.8"/><path id="XMLID_47_" class="st10" d="M24.8 23.1l-9.9-12.7"/><path id="XMLID_48_" class="st10" d="M10.8 20.1l11.8-8.5"/><path id="XMLID_49_" class="st10" d="M8.6 19.9l-5.9-5.3"/><path id="XMLID_50_" class="st10" d="M2.6 14.6l8.1-2.4"/><path id="XMLID_51_" class="st10" d="M10.7 12.2l1.1-7"/><path id="XMLID_52_" class="st10" d="M11.7 5.1l7.4 3.7"/><path id="XMLID_53_" class="st10" d="M19.1 8.8l8.7-1.4"/><path id="XMLID_54_" class="st10" d="M27.9 7.2l-1.7 5.7"/><path id="XMLID_55_" class="st10" d="M26.9 14.9l4.2 3.7"/><path id="XMLID_56_" class="st10" d="M31 18.5l-6.2 4.3"/><path id="XMLID_57_" class="st10" d="M24.8 22.8v7.8"/><path id="XMLID_58_" class="st10" d="M24.8 30.5l-7-3.7"/><path id="XMLID_59_" class="st10" d="M15.3 26.7l-5.7 2.4"/><path id="XMLID_60_" class="st10" d="M9.6 29.3v-7.1"/><path id="XMLID_61_" class="st0" d="M-67.2 69.8c-3.4 1.7-7.6.3-9.3-3.1-1.4-2.7-.3-6 2.4-7.4 2.2-1.1 4.8-.2 5.9 2 .9 1.7.2 3.9-1.6 4.7-1.4.7-3.1.1-3.8-1.3-.6-1.1-.1-2.5 1-3 .9-.4 2-.1 2.4.8.4.7.1 1.6-.6 1.9"/><path id="XMLID_67_" class="st0" d="M-45.5 68.7c-1.4-2.7-.3-6 2.4-7.4 2.2-1.1 4.8-.2 5.9 2 .9 1.7.2 3.9-1.6 4.7-1.4.7-3.1.1-3.8-1.3-.6-1.1-.1-2.5 1-3 .9-.4 2-.1 2.4.8.4.7.1 1.6-.6 1.9"/><path id="XMLID_62_" class="st0" d="M-37.6 73.1c-1.2 2.8-4.4 4.2-7.2 3-2.3-.9-3.3-3.5-2.4-5.8.7-1.8 2.8-2.7 4.6-1.9 1.4.6 2.1 2.2 1.5 3.7-.5 1.2-1.8 1.7-3 1.2-.9-.4-1.4-1.4-1-2.4.3-.7 1.2-1.1 1.9-.8"/><circle id="XMLID_66_" class="st0" cx="-36.8" cy="71.6" r="1.5"/></svg>