<svg id="Layer_1" xmlns="http://www.w3.org/2000/svg" viewBox="0 0 16.5 17.7"><style>.st0{fill:none;stroke:#000000;stroke-miterlimit:10;} .st1{fill:none;stroke:#E60012;stroke-width:0.4;stroke-miterlimit:10;} .st2{fill:none;stroke:#000000;stroke-width:0.5;stroke-miterlimit:10;} .st3{fill:none;stroke:#000000;stroke-width:0.8;stroke-miterlimit:10;} .st4{fill:none;stroke:#000000;stroke-width:0.2;stroke-miterlimit:10;} .st5{fill:none;stroke:#000000;stroke-width:0.4;stroke-miterlimit:10;} .st6{fill:none;} .st7{fill:none;stroke:#000000;stroke-width:0.1;stroke-miterlimit:10;} .st8{fill:none;stroke:#FFFFFF;stroke-width:0.3;stroke-miterlimit:10;} .st9{fill:none;stroke:#000000;stroke-width:0.7;stroke-miterlimit:10;} .st10{fill:none;stroke:#000000;stroke-width:0.3;stroke-miterlimit:10;}</style><path id="XMLID_1_" class="st0" d="M1.5-59.4l1.4.6 1.5.7 1.5.7 1.6.7 1.8.8 1.5.6 1.5.7"/><path id="XMLID_9_" class="st0" d="M1.5-30.4l1.4.6 1.5.7 1.5.7 1.6.7 1.8.8 1.5.6 1.5.7"/><path id="XMLID_69_" class="st0" d="M47.5 9.7l1.4.6 1.5.7 1.6.7 1.5.7 1.8.8 1.5.6 1.5.7"/><path id="XMLID_2_" d="M9.2-43.8c0 .6-.2 1.2-.6 1.6-.4.4-1 .7-1.6.7-.6 0-1.1-.2-1.5-.6-.5-.4-.7-1-.7-1.7 0-.6.2-1.1.6-1.5.4-.5 1-.8 1.7-.8.5 0 1 .2 1.4.5.3.4.7 1 .7 1.8z"/><path id="XMLID_63_" d="M11.4 24.2c0 .6-.2 1.2-.6 1.6-.4.4-1 .7-1.6.7-.6 0-1.1-.2-1.5-.6-.5-.4-.7-1-.7-1.7 0-.6.2-1.1.6-1.5.4-.5 1-.8 1.7-.8.5 0 1 .2 1.4.5.4.4.7 1.1.7 1.8z"/><path id="XMLID_38_" d="M90.8-46.6c0 .4-.1.7-.4 1-.3.3-.6.4-1 .4s-.7-.1-.9-.4c-.3-.3-.5-.6-.5-1s.1-.7.4-.9c.3-.3.6-.5 1-.5.3 0 .6.1.9.3.3.2.5.6.5 1.1z"/><path id="XMLID_39_" class="st0" d="M97.6-41.3c0 .4-.1.7-.4 1-.3.3-.6.4-1 .4s-.7-.1-.9-.4c-.3-.3-.5-.6-.5-1s.1-.7.4-.9c.3-.3.6-.5 1-.5.3 0 .6.1.9.3.3.3.5.7.5 1.1z"/><path id="XMLID_41_" class="st0" d="M81.4-34.6c0 .4-.1.7-.4 1-.3.3-.6.4-1 .4s-.7-.1-.9-.4c-.3-.3-.5-.6-.5-1s.1-.7.4-.9c.3-.3.6-.5 1-.5.3 0 .6.1.9.3.3.3.5.7.5 1.1z"/><path id="XMLID_43_" class="st0" d="M88.4-29.2c0 .4-.1.7-.4 1-.3.3-.6.4-1 .4s-.7-.1-.9-.4c-.3-.3-.5-.6-.5-1s.1-.7.4-.9c.3-.3.6-.5 1-.5.3 0 .6.1.9.3.3.3.5.7.5 1.1z"/><path id="XMLID_40_" d="M96.6-32.6c0 .4-.1.7-.4 1-.3.3-.6.4-1 .4s-.7-.1-.9-.4c-.3-.3-.5-.6-.5-1s.1-.7.4-.9c.3-.3.6-.5 1-.5.3 0 .6.1.9.3.2.3.5.7.5 1.1z"/><path id="XMLID_42_" d="M82.8-43.3c0 .4-.1.7-.4 1-.3.3-.6.4-1 .4s-.7-.1-.9-.4c-.3-.3-.5-.6-.5-1s.1-.7.4-.9c.3-.3.6-.5 1-.5.3 0 .6.1.9.3.3.3.5.7.5 1.1z"/><path id="XMLID_6_" class="st1" d="M19.1-55.3l10.3 5.7"/><path id="XMLID_7_" class="st1" d="M29.4-49.6l-10.3 7"/><path id="XMLID_36_" class="st1" d="M52.9-47.5l19.4 10.6"/><path id="XMLID_35_" class="st1" d="M72.3-36.9L52.9-23.6"/><path id="XMLID_16_" class="st1" d="M17.1-26.3l10.3 5.7"/><path id="XMLID_15_" class="st1" d="M27.4-20.6l-10.3 7"/><path id="XMLID_65_" class="st1" d="M18.3 9.3l10.3 5.6"/><path id="XMLID_64_" class="st1" d="M28.6 14.9l-10.3 7"/><path id="XMLID_3_" class="st2" d="M34.8-50.4c-.5 0-.9-.4-.9-.9s.4-.9.9-.9.9.4.9.9c-.1.6-.5.9-.9.9z"/><path id="XMLID_12_" d="M32.6-43c-.4.2-.9.1-1.1-.4-.2-.4-.1-.9.4-1.1.4-.2.9-.1 1.1.4.2.4 0 .9-.4 1.1z"/><path id="XMLID_5_" d="M40.2-44.9c-.5 0-.9-.4-.9-.9s.4-.9.9-.9.9.4.9.9-.4.9-.9.9z"/><path id="XMLID_4_" class="st2" d="M35.3-50.7l4.9 4.9"/><path id="XMLID_10_" class="st3" d="M40.6-46.3l1.8-7.2"/><path id="XMLID_11_" class="st4" d="M32.4-44.5l1.8-5.9"/><circle id="XMLID_8_" class="st2" cx="42.6" cy="-55.3" r="1.8"/><path id="XMLID_13_" class="st3" d="M11.5-10.4L7-9.2l-3.2-3.3L5-16.9l4.4-1.2 3.3 3.2z"/><path id="XMLID_14_" class="st5" d="M46.1-17.3l-8.2 3.7-7.4-5.3.9-9 8.3-3.7 7.3 5.3z"/><path id="XMLID_18_" d="M41.1-18.9l-4.4.2-2.3-3.8 2-3.9 4.4-.1 2.3 3.8z"/><path id="XMLID_17_" class="st6" d="M30.5-18.9l5.1-1.5"/><path id="XMLID_19_" class="st7" d="M34.4-22.5l-3.9 3.6"/><path id="XMLID_20_" class="st7" d="M36.4-26.4l-5-1.5"/><path id="XMLID_21_" class="st7" d="M34.4-22.5l-3-5.4"/><path id="XMLID_22_" class="st7" d="M30.5-18.9l6.2.2"/><path id="XMLID_23_" class="st7" d="M36.7-18.7l1.2 5.1"/><path id="XMLID_24_" class="st7" d="M37.9-13.6l3.2-5.3"/><path id="XMLID_25_" class="st7" d="M41.1-18.9l5 1.6"/><path id="XMLID_26_" class="st7" d="M46.1-17.3l-3-5.4"/><path id="XMLID_27_" class="st7" d="M43.1-22.7l3.9-3.6"/><path id="XMLID_28_" class="st7" d="M47-26.3l-6.2-.2"/><path id="XMLID_29_" class="st7" d="M40.8-26.5l-1.1-5.1"/><path id="XMLID_30_" class="st7" d="M39.7-31.6l-3.3 5.2"/><path id="XMLID_31_" class="st8" d="M35.6-24.8l6.3 4.4"/><path id="XMLID_32_" class="st8" d="M42.2-24.2L35.3-21"/><path id="XMLID_33_" class="st8" d="M39.1-26.5l-.8 7.7"/><path id="XMLID_34_" class="st9" d="M95.1-32.5L87-29.2l-7-5.3 1.1-8.7 8.1-3.4 7 5.3z"/><path id="XMLID_37_" class="st10" d="M81.4-43.3L87-29.2"/><path id="XMLID_44_" class="st10" d="M89.5-46.6L87-29.2"/><path id="XMLID_45_" class="st10" d="M87-29.2l9.2-12.1"/><path id="XMLID_46_" class="st10" d="M81.4-43.3l14.8 2"/><path id="XMLID_47_" class="st10" d="M95.2-32.3L85.3-45"/><path id="XMLID_48_" class="st10" d="M80-34.5l13-9.2"/><path id="XMLID_49_" class="st10" d="M80-34.5l-6.8-6.3"/><path id="XMLID_50_" class="st10" d="M73.2-40.8l7.9-2.4"/><path id="XMLID_51_" class="st10" d="M81.1-43.2l1.2-7"/><path id="XMLID_52_" class="st10" d="M82.3-50.2l7.2 3.6"/><path id="XMLID_53_" class="st10" d="M89.5-46.6l8.6-1.4"/><path id="XMLID_54_" class="st10" d="M98.1-48l-1.9 6.7"/><path id="XMLID_55_" class="st10" d="M96.2-41.3l5.1 4.4"/><path id="XMLID_56_" class="st10" d="M101.3-36.9l-6.1 4.3"/><path id="XMLID_57_" class="st10" d="M95.2-32.6v7.6"/><path id="XMLID_58_" class="st10" d="M95.2-25L87-29.2"/><path id="XMLID_59_" class="st10" d="M87-29.2l-7 2.8"/><path id="XMLID_60_" class="st10" d="M80-26.4v-8.1"/><path id="XMLID_61_" class="st0" d="M13.2 14.4c-3.4 1.7-7.6.3-9.3-3.1-1.4-2.7-.3-6 2.4-7.4 2.2-1.1 4.8-.2 5.9 2 .9 1.7.2 3.9-1.6 4.7-1.4.7-3.1.1-3.8-1.3-.6-1.1-.1-2.5 1-3 .9-.4 2-.1 2.4.8.4.7.1 1.6-.6 1.9"/><path id="XMLID_67_" class="st0" d="M34.9 13.3c-1.4-2.7-.3-6 2.4-7.4 2.2-1.1 4.8-.2 5.9 2 .9 1.7.2 3.9-1.6 4.7-1.4.7-3.1.1-3.8-1.3-.6-1.1-.1-2.5 1-3 .9-.4 2-.1 2.4.8.4.7.1 1.6-.6 1.9"/><path id="XMLID_62_" class="st0" d="M42.8 17.8c-1.2 2.8-4.4 4.2-7.2 3-2.3-.9-3.3-3.5-2.4-5.8.7-1.8 2.8-2.7 4.6-1.9 1.4.6 2.1 2.2 1.5 3.7-.5 1.2-1.8 1.7-3 1.2-.9-.4-1.4-1.4-1-2.4.3-.7 1.2-1.1 1.9-.8"/><circle id="XMLID_66_" class="st0" cx="43.6" cy="16.2" r="1.5"/></svg>