<svg id="Layer_1" xmlns="http://www.w3.org/2000/svg" viewBox="0 0 15.5 18.1"><style>.st0{fill:none;stroke:#000000;stroke-miterlimit:10;} .st1{fill:none;stroke:#E60012;stroke-width:0.4;stroke-miterlimit:10;} .st2{fill:none;stroke:#000000;stroke-width:0.5;stroke-miterlimit:10;} .st3{fill:none;stroke:#000000;stroke-width:0.8;stroke-miterlimit:10;} .st4{fill:none;stroke:#000000;stroke-width:0.2;stroke-miterlimit:10;} .st5{fill:none;stroke:#000000;stroke-width:0.4;stroke-miterlimit:10;} .st6{fill:none;} .st7{fill:none;stroke:#000000;stroke-width:0.1;stroke-miterlimit:10;} .st8{fill:none;stroke:#FFFFFF;stroke-width:0.3;stroke-miterlimit:10;} .st9{fill:none;stroke:#000000;stroke-width:0.7;stroke-miterlimit:10;} .st10{fill:none;stroke:#000000;stroke-width:0.3;stroke-miterlimit:10;}</style><path id="XMLID_1_" class="st0" d="M-29.1-.6l1.5.7 1.4.6 1.6.7 1.6.8 1.8.8 1.4.6 1.6.6"/><path id="XMLID_9_" class="st0" d="M-29.1 28.4l1.5.7 1.4.6 1.6.7 1.6.8 1.8.8 1.4.6 1.6.6"/><path id="XMLID_69_" class="st0" d="M17 68.6l1.4.6 1.5.7 1.5.7 1.6.7 1.8.8 1.5.6 1.5.7"/><path id="XMLID_2_" d="M-21.4 15c0 .6-.2 1.2-.6 1.6-.4.4-1 .7-1.6.7-.6 0-1.1-.2-1.5-.6-.5-.4-.7-1-.7-1.7 0-.6.2-1.1.6-1.5.4-.5 1-.8 1.7-.8.5 0 1 .2 1.4.5.4.5.7 1.1.7 1.8z"/><path id="XMLID_63_" d="M-19.1 83.1c0 .6-.2 1.2-.6 1.6-.4.4-1 .7-1.6.7-.6 0-1.1-.2-1.5-.6-.5-.4-.7-1-.7-1.7 0-.6.2-1.1.6-1.5.4-.5 1-.8 1.7-.8.5 0 1 .2 1.4.5.4.4.7 1 .7 1.8z"/><path id="XMLID_38_" d="M60.3 12.3c0 .4-.1.7-.4 1-.3.3-.6.4-1 .4s-.7-.1-.9-.4c-.3-.3-.5-.6-.5-1s.1-.7.4-.9c.3-.3.6-.5 1-.5.3 0 .6.1.9.3.3.2.5.6.5 1.1z"/><path id="XMLID_39_" class="st0" d="M67.1 17.6c0 .4-.1.7-.4 1-.3.3-.6.4-1 .4s-.7-.1-.9-.4c-.3-.3-.5-.6-.5-1s.1-.7.4-.9c.3-.3.6-.5 1-.5.3 0 .6.1.9.3.3.3.5.6.5 1.1z"/><path id="XMLID_41_" class="st0" d="M50.8 24.3c0 .4-.1.7-.4 1-.3.3-.6.4-1 .4s-.7-.1-.9-.4c-.3-.3-.5-.6-.5-1s.1-.7.4-.9c.3-.3.6-.5 1-.5.3 0 .6.1.9.3.3.3.5.7.5 1.1z"/><path id="XMLID_43_" class="st0" d="M57.8 29.7c0 .4-.1.7-.4 1-.3.3-.6.4-1 .4s-.7-.1-.9-.4c-.3-.3-.5-.6-.5-1s.1-.7.4-.9c.3-.3.6-.5 1-.5.3 0 .6.1.9.3.3.3.5.7.5 1.1z"/><path id="XMLID_40_" d="M66 26.3c0 .4-.1.7-.4 1-.3.3-.6.4-1 .4s-.7-.1-.9-.4c-.3-.3-.5-.6-.5-1s.1-.7.4-.9c.3-.3.6-.5 1-.5.3 0 .6.1.9.3.3.3.5.7.5 1.1z"/><path id="XMLID_42_" d="M52.2 15.6c0 .4-.1.7-.4 1-.3.3-.6.4-1 .4s-.7-.1-.9-.4c-.3-.3-.5-.6-.5-1s.1-.7.4-.9c.3-.3.6-.5 1-.5.3 0 .6.1.9.3.3.3.5.7.5 1.1z"/><path id="XMLID_6_" class="st1" d="M-11.4 3.6l10.2 5.6"/><path id="XMLID_7_" class="st1" d="M-1.2 9.2l-10.2 7"/><path id="XMLID_36_" class="st1" d="M22.4 11.4L41.8 22"/><path id="XMLID_35_" class="st1" d="M41.8 22L22.4 35.2"/><path id="XMLID_16_" class="st1" d="M-13.4 32.6l10.2 5.6"/><path id="XMLID_15_" class="st1" d="M-3.2 38.2l-10.2 7"/><path id="XMLID_65_" class="st1" d="M-12.2 68.2L-2 73.8"/><path id="XMLID_64_" class="st1" d="M-2 73.8l-10.2 7"/><path id="XMLID_3_" class="st2" d="M4.2 8.5c-.5 0-.9-.4-.9-.9s.4-.9.9-.9.9.4.9.9-.4.9-.9.9z"/><path id="XMLID_12_" d="M2.1 15.9c-.4.2-.9.1-1.1-.4-.2-.4-.1-.9.4-1.1.4-.2.9-.1 1.1.4.1.4 0 .9-.4 1.1z"/><path id="XMLID_5_" d="M9.7 14c-.5 0-.9-.4-.9-.9s.4-.9.9-.9.9.4.9.9c-.1.5-.5.9-.9.9z"/><path id="XMLID_4_" class="st2" d="M4.8 8.2l4.9 4.9"/><path id="XMLID_10_" class="st3" d="M10 12.6l1.9-7.2"/><path id="XMLID_11_" class="st4" d="M1.9 14.3l1.8-5.8"/><circle id="XMLID_8_" class="st2" cx="12" cy="3.6" r="1.8"/><path id="XMLID_13_" class="st3" d="M-19.1 48.5l-4.4 1.1-3.2-3.2 1.1-4.4 4.5-1.2 3.2 3.2z"/><path id="XMLID_14_" class="st5" d="M15.5 41.5l-8.2 3.7L0 40l.9-9 8.2-3.7 7.3 5.3z"/><path id="XMLID_18_" d="M10.5 40l-4.4.1-2.3-3.7 2.1-3.9 4.4-.1 2.3 3.7z"/><path id="XMLID_17_" class="st6" d="M0 40l5.1-1.6"/><path id="XMLID_19_" class="st7" d="M3.8 36.4L0 40"/><path id="XMLID_20_" class="st7" d="M5.9 32.5L.9 31"/><path id="XMLID_21_" class="st7" d="M3.8 36.4L.9 31"/><path id="XMLID_22_" class="st7" d="M0 40l6.1.1"/><path id="XMLID_23_" class="st7" d="M6.1 40.1l1.2 5.1"/><path id="XMLID_24_" class="st7" d="M7.3 45.2l3.2-5.2"/><path id="XMLID_25_" class="st7" d="M10.5 40l5 1.5"/><path id="XMLID_26_" class="st7" d="M15.5 41.5l-2.9-5.4"/><path id="XMLID_27_" class="st7" d="M12.6 36.1l3.8-3.5"/><path id="XMLID_28_" class="st7" d="M16.4 32.6l-6.1-.2"/><path id="XMLID_29_" class="st7" d="M10.3 32.4l-1.2-5.1"/><path id="XMLID_30_" class="st7" d="M9.1 27.3l-3.2 5.2"/><path id="XMLID_31_" class="st8" d="M5.1 34.1l6.2 4.4"/><path id="XMLID_32_" class="st8" d="M11.7 34.7l-7 3.1"/><path id="XMLID_33_" class="st8" d="M8.5 32.4l-.8 7.7"/><path id="XMLID_34_" class="st9" d="M64.6 26.3l-8.2 3.4-7-5.3 1.2-8.7 8.1-3.4 7 5.3z"/><path id="XMLID_37_" class="st10" d="M50.8 15.6l5.6 14.1"/><path id="XMLID_44_" class="st10" d="M58.9 12.3l-2.5 17.4"/><path id="XMLID_45_" class="st10" d="M56.4 29.7l9.3-12.1"/><path id="XMLID_46_" class="st10" d="M50.8 15.6l14.9 2"/><path id="XMLID_47_" class="st10" d="M64.6 26.6l-9.9-12.7"/><path id="XMLID_48_" class="st10" d="M49.4 24.4l13-9.3"/><path id="XMLID_49_" class="st10" d="M49.4 24.4l-6.8-6.3"/><path id="XMLID_50_" class="st10" d="M42.6 18.1l8-2.4"/><path id="XMLID_51_" class="st10" d="M50.6 15.7l1.1-7"/><path id="XMLID_52_" class="st10" d="M51.7 8.7l7.2 3.6"/><path id="XMLID_53_" class="st10" d="M58.9 12.3l8.6-1.4"/><path id="XMLID_54_" class="st10" d="M67.5 10.9l-1.8 6.7"/><path id="XMLID_55_" class="st10" d="M65.7 17.6l5.1 4.4"/><path id="XMLID_56_" class="st10" d="M70.8 22l-6.2 4.3"/><path id="XMLID_57_" class="st10" d="M64.6 26.3v7.6"/><path id="XMLID_58_" class="st10" d="M64.6 33.9l-8.2-4.2"/><path id="XMLID_59_" class="st10" d="M56.4 29.7l-7 2.8"/><path id="XMLID_60_" class="st10" d="M49.4 32.5v-8.1"/><path id="XMLID_61_" class="st0" d="M-17.4 73.3c-3.4 1.7-7.6.3-9.3-3.1-1.4-2.7-.3-6 2.4-7.4 2.2-1.1 4.8-.2 5.9 2 .9 1.7.2 3.9-1.6 4.7-1.4.7-3.1.1-3.8-1.3-.6-1.1-.1-2.5 1-3 .9-.4 2-.1 2.4.8.4.7.1 1.6-.6 1.9"/><path id="XMLID_67_" class="st0" d="M4.4 72.2c-1.4-2.7-.3-6 2.4-7.4 2.2-1.1 4.8-.2 5.9 2 .9 1.7.2 3.9-1.6 4.7-1.4.7-3.1.1-3.8-1.3-.6-1.1-.1-2.5 1-3 .9-.4 2-.1 2.4.8.4.7.1 1.6-.6 1.9"/><path id="XMLID_62_" class="st0" d="M12.3 76.6c-1.2 2.8-4.4 4.2-7.2 3-2.3-.9-3.3-3.5-2.4-5.8.7-1.8 2.8-2.7 4.6-1.9 1.4.6 2.1 2.2 1.5 3.7-.5 1.2-1.8 1.7-3 1.2-.9-.4-1.4-1.4-1-2.4.3-.7 1.2-1.1 1.9-.8"/><circle id="XMLID_66_" class="st0" cx="13" cy="75.1" r="1.5"/></svg>