<svg id="Layer_1" xmlns="http://www.w3.org/2000/svg" viewBox="0 0 10.8 9.3"><style>.st0{fill:none;stroke:#000000;stroke-miterlimit:10;} .st1{fill:none;stroke:#E60012;stroke-width:0.4;stroke-miterlimit:10;} .st2{fill:none;stroke:#000000;stroke-width:0.5;stroke-miterlimit:10;} .st3{fill:none;stroke:#000000;stroke-width:0.8;stroke-miterlimit:10;} .st4{fill:none;stroke:#000000;stroke-width:0.2;stroke-miterlimit:10;} .st5{fill:none;stroke:#000000;stroke-width:0.4;stroke-miterlimit:10;} .st6{fill:none;} .st7{fill:none;stroke:#000000;stroke-width:0.1;stroke-miterlimit:10;} .st8{fill:none;stroke:#FFFFFF;stroke-width:0.3;stroke-miterlimit:10;} .st9{fill:none;stroke:#000000;stroke-width:0.7;stroke-miterlimit:10;} .st10{fill:none;stroke:#000000;stroke-width:0.3;stroke-miterlimit:10;}</style><path id="XMLID_1_" class="st0" d="M0-11l1.4.6 1.5.7 1.6.7 1.5.7 1.8.8 1.5.6 1.5.7"/><path id="XMLID_9_" class="st0" d="M0 18l1.4.6 1.5.7 1.6.7 1.5.7 1.8.8 1.5.6 1.5.7"/><path id="XMLID_69_" class="st0" d="M46 58.1l1.5.6 1.4.7 1.6.7 1.6.7 1.7.8 1.5.6 1.6.7"/><path id="XMLID_2_" d="M7.7 4.6c0 .6-.2 1.2-.6 1.6-.4.4-1 .7-1.6.7-.6 0-1.1-.2-1.5-.6-.5-.4-.7-1-.7-1.7-.2-.6.1-1.1.4-1.6.4-.5 1-.8 1.7-.8.5 0 1 .2 1.4.5.5.5.9 1.1.9 1.9z"/><path id="XMLID_63_" d="M10 72.6c0 .6-.2 1.2-.6 1.6-.4.4-1 .7-1.6.7-.6 0-1.1-.2-1.5-.6-.5-.4-.7-1-.7-1.7 0-.6.2-1.1.6-1.5.4-.5 1-.8 1.7-.8.5 0 1 .2 1.4.5.3.4.7 1.1.7 1.8z"/><path id="XMLID_38_" d="M89.4 1.8c0 .4-.1.7-.4 1-.3.3-.6.4-1 .4s-.7-.1-.9-.4c-.3-.3-.5-.6-.5-1s.1-.7.4-.9c.3-.3.6-.5 1-.5.3 0 .6.1.9.3.3.2.5.6.5 1.1z"/><path id="XMLID_39_" class="st0" d="M96.1 7.1c0 .4-.1.7-.4 1-.3.3-.6.4-1 .4s-.7-.1-.9-.4c-.3-.3-.5-.6-.5-1s.1-.7.4-.9c.3-.3.6-.5 1-.5.3 0 .6.1.9.3.3.3.5.7.5 1.1z"/><path id="XMLID_41_" class="st0" d="M79.9 13.8c0 .4-.1.7-.4 1-.3.3-.6.4-1 .4s-.7-.1-.9-.4c-.3-.3-.5-.6-.5-1s.1-.7.4-.9c.3-.3.6-.5 1-.5.3 0 .6.1.9.3.3.3.5.7.5 1.1z"/><path id="XMLID_43_" class="st0" d="M86.9 19.2c0 .4-.1.7-.4 1-.3.3-.6.4-1 .4s-.7-.1-.9-.4c-.3-.3-.5-.6-.5-1s.1-.7.4-.9c.3-.3.6-.5 1-.5.3 0 .6.1.9.3.3.3.5.7.5 1.1z"/><path id="XMLID_40_" d="M95.1 15.8c0 .4-.1.7-.4 1-.3.3-.6.4-1 .4s-.7-.1-.9-.4c-.3-.3-.5-.6-.5-1s.1-.7.4-.9c.3-.3.6-.5 1-.5.3 0 .6.1.9.3.3.3.5.7.5 1.1z"/><path id="XMLID_42_" d="M81.3 5.1c0 .4-.1.7-.4 1-.3.3-.6.4-1 .4s-.7-.1-.9-.4c-.3-.3-.5-.6-.5-1s.1-.7.4-.9c.3-.3.6-.5 1-.5.3 0 .6.1.9.3.3.3.5.7.5 1.1z"/><path id="XMLID_6_" class="st1" d="M17.6-6.9l10.3 5.7"/><path id="XMLID_7_" class="st1" d="M27.9-1.2l-10.3 7"/><path id="XMLID_36_" class="st1" d="M51.4.9l19.4 10.6"/><path id="XMLID_35_" class="st1" d="M70.8 11.5L51.4 24.8"/><path id="XMLID_16_" class="st1" d="M15.6 22.1l10.3 5.7"/><path id="XMLID_15_" class="st1" d="M25.9 27.8l-10.3 7"/><path id="XMLID_65_" class="st1" d="M16.8 57.7l10.3 5.6"/><path id="XMLID_64_" class="st1" d="M27.1 63.3l-10.3 7"/><path id="XMLID_3_" class="st2" d="M33.3-2c-.5 0-.9-.4-.9-.9s.4-.9.9-.9.9.4.9.9c-.1.6-.4.9-.9.9z"/><path id="XMLID_12_" d="M31.1 5.4c-.4.2-.9.1-1.1-.4-.2-.4-.1-.9.4-1.1.4-.2.9-.1 1.1.4.2.4 0 .9-.4 1.1z"/><path id="XMLID_5_" d="M38.7 3.5c-.5 0-.9-.4-.9-.9s.4-.9.9-.9.9.4.9.9-.4.9-.9.9z"/><path id="XMLID_4_" class="st2" d="M33.8-2.3l4.9 4.9"/><path id="XMLID_10_" class="st3" d="M39.1 2.1l1.8-7.2"/><path id="XMLID_11_" class="st4" d="M30.9 3.9L32.8-2"/><circle id="XMLID_8_" class="st2" cx="41.1" cy="-6.9" r="1.8"/><path id="XMLID_13_" class="st3" d="M10 38l-4.4 1.2-3.3-3.3 1.2-4.4 4.4-1.2 3.3 3.2z"/><path id="XMLID_14_" class="st5" d="M44.6 31.1l-8.2 3.7-7.3-5.3.9-9 8.2-3.7 7.3 5.3z"/><path id="XMLID_18_" d="M39.6 29.5l-4.4.2-2.3-3.8L35 22l4.4-.1 2.3 3.8z"/><path id="XMLID_17_" class="st6" d="M29.1 29.5l5-1.5"/><path id="XMLID_19_" class="st7" d="M32.9 25.9l-3.8 3.6"/><path id="XMLID_20_" class="st7" d="M35 22l-5-1.5"/><path id="XMLID_21_" class="st7" d="M32.9 25.9L30 20.5"/><path id="XMLID_22_" class="st7" d="M29.1 29.5l6.1.2"/><path id="XMLID_23_" class="st7" d="M35.2 29.7l1.2 5.1"/><path id="XMLID_24_" class="st7" d="M36.4 34.8l3.2-5.3"/><path id="XMLID_25_" class="st7" d="M39.6 29.5l5 1.6"/><path id="XMLID_26_" class="st7" d="M44.6 31.1l-2.9-5.4"/><path id="XMLID_27_" class="st7" d="M41.7 25.7l3.8-3.6"/><path id="XMLID_28_" class="st7" d="M45.5 22.1l-6.1-.2"/><path id="XMLID_29_" class="st7" d="M39.4 21.9l-1.2-5.1"/><path id="XMLID_30_" class="st7" d="M38.2 16.8L35 22"/><path id="XMLID_31_" class="st8" d="M34.1 23.6l6.3 4.4"/><path id="XMLID_32_" class="st8" d="M40.8 24.2l-7 3.2"/><path id="XMLID_33_" class="st8" d="M37.6 21.9l-.8 7.7"/><path id="XMLID_34_" class="st9" d="M93.6 15.9l-8.1 3.3-7-5.3 1.1-8.7 8.1-3.4 7 5.3z"/><path id="XMLID_37_" class="st10" d="M79.9 5.1l5.6 14.1"/><path id="XMLID_44_" class="st10" d="M88 1.8l-2.5 17.4"/><path id="XMLID_45_" class="st10" d="M85.5 19.2l9.2-12.1"/><path id="XMLID_46_" class="st10" d="M79.9 5.1l14.8 2"/><path id="XMLID_47_" class="st10" d="M93.7 16.1L83.8 3.4"/><path id="XMLID_48_" class="st10" d="M78.5 13.9l13-9.2"/><path id="XMLID_49_" class="st10" d="M78.5 13.9l-6.8-6.3"/><path id="XMLID_50_" class="st10" d="M71.7 7.6l7.9-2.4"/><path id="XMLID_51_" class="st10" d="M79.6 5.2l1.2-7"/><path id="XMLID_52_" class="st10" d="M80.8-1.8L88 1.8"/><path id="XMLID_53_" class="st10" d="M88 1.8L96.6.4"/><path id="XMLID_54_" class="st10" d="M96.6.4l-1.9 6.7"/><path id="XMLID_55_" class="st10" d="M94.7 7.1l5.2 4.4"/><path id="XMLID_56_" class="st10" d="M99.9 11.5l-6.2 4.3"/><path id="XMLID_57_" class="st10" d="M93.7 15.8v7.6"/><path id="XMLID_58_" class="st10" d="M93.7 23.4l-8.2-4.2"/><path id="XMLID_59_" class="st10" d="M85.5 19.2l-7 2.8"/><path id="XMLID_60_" class="st10" d="M78.5 22v-8.1"/><path id="XMLID_61_" class="st0" d="M11.7 62.8c-3.4 1.7-7.6.3-9.3-3.1-1.4-2.7-.3-6 2.4-7.4 2.2-1.1 4.8-.2 5.9 2 1 1.7.3 3.8-1.5 4.7-1.4.7-3.1.1-3.8-1.3-.6-1.1-.1-2.5 1-3 .9-.4 2-.1 2.4.8.4.7.1 1.6-.6 1.9"/><path id="XMLID_67_" class="st0" d="M33.4 61.7c-1.4-2.7-.3-6 2.4-7.4 2.2-1.1 4.8-.2 5.9 2 .9 1.7.2 3.9-1.6 4.7-1.4.7-3.1.1-3.8-1.3-.6-1.1-.1-2.5 1-3 .9-.4 2-.1 2.4.8.4.7.1 1.6-.6 1.9"/><path id="XMLID_62_" class="st0" d="M41.3 66.2c-1.2 2.8-4.4 4.2-7.2 3-2.3-.9-3.3-3.5-2.4-5.8.7-1.8 2.8-2.7 4.6-1.9 1.4.6 2.1 2.2 1.5 3.7-.5 1.2-1.8 1.7-3 1.2-.8-.4-1.2-1.4-.9-2.4.3-.7 1.2-1.1 1.9-.8"/><circle id="XMLID_66_" class="st0" cx="42.1" cy="64.6" r="1.5"/></svg>